HIERARCHY
ROOT root     
{
	OFFSET 0.0000 0.0000 0.0000
	CHANNELS 6 Xposition Yposition Zposition Zrotation Yrotation Xrotation
	JOINT pelvis   
	{
		OFFSET 0.0000 0.0000 0.0000
		CHANNELS 3 Zrotation Yrotation Xrotation
		JOINT thorax   
		{
			OFFSET 0.0000 23.0750 -5.0000
			CHANNELS 3 Zrotation Yrotation Xrotation
			JOINT rclavicle
			{
				OFFSET 0.0000 28.0009 0.0000
				CHANNELS 3 Zrotation Yrotation Xrotation
				JOINT rhumerus 
				{
					OFFSET -18.5725 5.5939 0.0000
					CHANNELS 3 Zrotation Yrotation Xrotation
					JOINT rradius  
					{
						OFFSET -24.8459 0.0000 0.0000
						CHANNELS 3 Zrotation Yrotation Xrotation
						JOINT rhand    
						{
							OFFSET -24.5477 0.0000 0.0000
							CHANNELS 3 Zrotation Yrotation Xrotation
							End Site
							{
								OFFSET -8.1826 0.0000 0.0000
							}
						}
					}
				}
			}
			JOINT lclavicle
			{
				OFFSET 0.0000 28.0009 0.0000
				CHANNELS 3 Zrotation Yrotation Xrotation
				JOINT lhumerus 
				{
					OFFSET 18.5725 5.5939 0.0000
					CHANNELS 3 Zrotation Yrotation Xrotation
					JOINT lradius  
					{
						OFFSET 24.8459 0.0000 0.0000
						CHANNELS 3 Zrotation Yrotation Xrotation
						JOINT lhand    
						{
							OFFSET 24.5477 0.0000 0.0000
							CHANNELS 3 Zrotation Yrotation Xrotation
							End Site
							{
								OFFSET 8.1826 0.0000 0.0000
							}
						}
					}
				}
			}
			JOINT head     
			{
				OFFSET 0.0000 35.2030 0.0000
				CHANNELS 3 Zrotation Yrotation Xrotation
				End Site
				{
					OFFSET 0.0000 11.7343 0.0000
				}
			}
		}
		JOINT rfemur   
		{
			OFFSET -8.2817 0.0000 0.0000
			CHANNELS 3 Zrotation Yrotation Xrotation
			JOINT rtibia   
			{
				OFFSET 0.0000 -43.3627 0.0000
				CHANNELS 3 Zrotation Yrotation Xrotation
				JOINT rfoot    
				{
					OFFSET 0.0000 -38.2947 0.0000
					CHANNELS 3 Zrotation Yrotation Xrotation
					JOINT rtoes    
					{
						OFFSET 0.0000 0.0000 16.6054
						CHANNELS 3 Zrotation Yrotation Xrotation
						End Site
						{
							OFFSET 0.0000 0.0000 5.5351
						}
					}
				}
			}
		}
		JOINT lfemur   
		{
			OFFSET 8.2817 0.0000 0.0000
			CHANNELS 3 Zrotation Yrotation Xrotation
			JOINT ltibia   
			{
				OFFSET 0.0000 -43.3627 0.0000
				CHANNELS 3 Zrotation Yrotation Xrotation
				JOINT lfoot    
				{
					OFFSET 0.0000 -38.2947 0.0000
					CHANNELS 3 Zrotation Yrotation Xrotation
					JOINT ltoes    
					{
						OFFSET 0.0000 0.0000 16.6054
						CHANNELS 3 Zrotation Yrotation Xrotation
						End Site
						{
							OFFSET 0.0000 0.0000 5.5351
						}
					}
				}
			}
		}
	}
}
MOTION
Frames: 15
Frame Time: .0333333
-73.127 76.347 -1.4667 -32.5809 88.387 -11.6151 0 -0 0 0.485429 -10.5321 19.7794 25.2233 -15.6912 4.31707e-05 58.1941 -20.0819 2.27767 -8.98379e-07 73.4846 -1.2034e-06 -11.8034 2.45369 -0.253695 -14.5167 17.6374 5.38932e-05 -40.4186 2.5931 -8.47655 -180 -71.3583 180 -1.65745 1.84264 -0.0266995 4.6876 3.72297 -18.2053 11.8917 -12.5303 -62.4908 -0 -0 51.7783 -8.85238e-07 -4.14756 -0.443093 0.0320998 1.47321e-07 -16.092 0.631125 16.3269 -18.2265 -0 -0 57.1597 1.40064e-05 3.99682 -11.739 -0.814488 -1.45646e-06 -68.9629 
-71.813 76.148 -1.3933 -28.2934 88.6191 -7.55497 0 -0 0 0.928167 -10.5811 19.7725 25.2429 -15.6337 2.523e-05 57.9756 -20.0031 2.04427 -0 73.6295 -0 -11.7054 2.47764 -0.253991 -14.6953 17.7474 5.45754e-06 -40.5213 3.42092 -8.17626 -180 -71.4524 180 -1.98216 1.67891 -0.0290013 4.56248 3.52999 -18.4872 11.2454 -12.4589 -62.1724 -0 -0 53.6373 -2.16647e-06 -4.72201 -1.87374 0.154798 -1.94198e-07 -11.5703 0.923665 15.7902 -17.2283 -0 -0 57.375 4.84216e-06 3.68255 -10.6588 -0.682004 -4.45956e-06 -70.2726 
-70.517 75.957 -1.3039 -25.5693 88.8189 -5.03138 0 -0 0 1.43143 -10.6052 19.7573 25.3026 -15.5253 6.00411e-05 57.6881 -19.8236 1.82274 -1.21993e-06 73.7447 -9.15015e-07 -11.6295 2.48145 -0.252706 -14.9112 17.8254 -3.03445e-05 -40.6761 4.29493 -7.85407 -180 -71.5936 180 -2.30142 1.50914 -0.0303011 4.45028 3.33866 -18.7719 10.7125 -12.36 -61.8057 -0 -0 55.3542 4.9858e-07 -5.35767 -3.2898 0.308397 1.19393e-07 -8.70776 1.25367 15.1465 -16.3669 -0 -0 57.7301 -5.48406e-07 3.44815 -9.50049 -0.569807 -5.7651e-06 -70.9871 
-69.245 75.78 -1.2003 -25.1712 89.0008 -4.80192 0 -0 0 1.98351 -10.5996 19.7286 25.4053 -15.3661 0.000112282 57.3369 -19.5373 1.61297 -1.22554e-06 73.8308 -9.20664e-07 -11.582 2.45886 -0.249405 -15.1533 17.8748 -0.000112207 -40.895 5.2028 -7.50606 -180 -71.7919 180 -2.60797 1.33914 -0.0305007 4.35796 3.14969 -19.0507 10.2966 -12.2411 -61.3991 -0 -0 56.8965 1.53438e-06 -6.02174 -4.66567 0.491596 -2.04569e-07 -7.25211 1.59954 14.4017 -15.6648 -0 -0 58.2335 -4.40777e-06 3.32108 -8.29438 -0.479601 -4.95162e-06 -70.9542 
-67.995 75.62 -1.0855 -27.648 89.0648 -7.39546 0 -0 0 2.56892 -10.5474 19.7067 25.5573 -15.1691 -2.39831e-06 56.9248 -19.1336 1.41392 -9.24705e-07 73.8899 -1.22957e-06 -11.5712 2.40427 -0.2436 -15.4022 17.9164 5.81608e-05 -41.202 6.08802 -7.10862 -180 -72.0808 180 -2.90174 1.18578 -0.0299987 4.28832 2.95378 -19.3234 9.99318 -12.1168 -60.9454 -0 -0 58.254 -1.80699e-06 -6.67615 -5.98758 0.69961 6.07037e-07 -6.88961 1.94655 13.5791 -15.1147 -0 -0 58.883 2.11749e-06 3.31299 -7.07835 -0.408695 3.34321e-06 -70.0234 
-66.779 75.481 -0.9606 -33.5503 89.1381 -13.3774 0 -0 0 3.18148 -10.4581 19.6618 25.7431 -14.9329 4.12567e-05 56.4658 -18.6174 1.22563 -0 73.9129 -0 -11.604 2.31685 -0.235487 -15.6577 17.9266 -0.00016215 -41.5946 6.99157 -6.67897 -180 -72.4454 180 -3.17242 1.0472 -0.0289987 4.24584 2.75807 -19.5786 9.79397 -11.9798 -60.4727 -0 -0 59.4047 1.0527e-05 -7.31083 -7.2046 0.921793 -2.0992e-07 -7.55297 2.27726 12.6947 -14.7665 -0 -0 59.6982 -6.633e-07 3.44746 -5.91541 -0.355705 4.34119e-06 -68.1111 
-65.599 75.366 -0.8291 -42.2818 89.1961 -22.146 0 -0 0 3.8037 -10.3253 19.5965 25.9605 -14.6667 6.77153e-05 55.9738 -17.989 1.04602 -0 73.9014 -0 -11.6839 2.19674 -0.224799 -15.901 17.9132 -0.0001241 -42.0873 7.88788 -6.20684 -180 -72.9079 180 -3.41856 0.932794 -0.0278004 4.23378 2.55702 -19.8117 9.68058 -11.8367 -59.9875 -0 -0 60.3577 -1.22526e-05 -7.903 -8.30176 1.14831 -4.07476e-07 -8.97752 2.57872 11.7806 -14.624 -0 -0 60.6785 -3.10627e-06 3.72962 -4.86604 -0.3168 -5.23913e-07 -65.1659 
-64.456 75.276 -0.6943 -52.1111 89.1669 -31.9497 0 -0 0 4.41793 -10.1484 19.5105 26.2 -14.3785 -8.32594e-05 55.4668 -17.2549 0.872373 -1.30488e-06 73.8603 -1.73603e-06 -11.8099 2.04635 -0.211698 -16.1191 17.8759 5.9877e-05 -42.6829 8.7693 -5.69096 -180 -73.4789 180 -3.63723 0.847502 -0.0269002 4.254 2.34752 -20.0197 9.6323 -11.693 -59.4967 -0 -0 61.1287 4.67174e-06 -8.43918 -9.27381 1.36972 7.14135e-07 -10.8746 2.84059 10.8686 -14.697 -0 -0 61.8212 4.75447e-06 4.15992 -3.98991 -0.290003 5.64134e-07 -61.2383 
-63.351 75.213 -0.5592 -61.5197 89.0799 -41.2773 0 -0 0 5.00815 -9.92792 19.4029 26.4483 -14.0762 -1.73307e-05 54.9641 -16.4224 0.703276 -0 73.7914 -0 -11.9785 1.87107 -0.196291 -16.3017 17.8155 2.45829e-05 -43.3818 9.62973 -5.13248 -180 -74.169 180 -3.82615 0.794602 -0.0264997 4.30781 2.1256 -20.1999 9.62789 -11.5534 -59.0074 -0 -0 61.7409 -8.04226e-06 -8.91202 -10.1286 1.57966 1.04318e-05 -12.9226 3.05808 9.98941 -14.9864 -0 -0 63.1141 -1.01528e-06 4.73038 -3.33421 -0.275802 -1.37567e-06 -56.4849 
-62.286 75.174 -0.4286 -69.1633 89.0344 -48.8078 0 -0 0 5.54409 -9.66777 19.2818 26.7004 -13.762 0.00012426 54.4854 -15.5012 0.538604 -0 73.7046 -0 -12.1816 1.67812 -0.179103 -16.4371 17.7342 -6.32587e-05 -44.1763 10.4654 -4.53562 -180 -74.9791 180 -3.98066 0.771002 -0.0268007 4.40009 1.89117 -20.3555 9.63874 -11.4261 -58.5284 -0 -0 62.2261 -1.0604e-05 -9.31695 -10.8946 1.77615 2.84989e-06 -14.7355 3.21592 9.1661 -15.4864 -0 -0 64.5337 1.73378e-06 5.4321 -2.92032 -0.277602 1.58824e-07 -51.2133 
-61.258 75.161 -0.3014 -75.8293 88.9551 -55.3133 0 -0 0 6.03776 -9.3684 19.1483 26.9381 -13.4473 6.00071e-05 54.0468 -14.5034 0.37555 -1.21118e-06 73.6083 -9.06208e-07 -12.4101 1.4777 -0.160704 -16.5263 17.6342 6.77934e-05 -45.057 11.26 -3.90002 -180 -75.9203 180 -4.10075 0.7858 -0.0280994 4.52108 1.63499 -20.4884 9.66162 -11.3075 -58.0573 -0 -0 62.6022 -2.59024e-05 -9.66405 -11.5759 1.95719 -2.39703e-06 -16.2128 3.33448 8.42466 -16.1933 -0 -0 66.0609 -7.86737e-06 6.23555 -2.75077 -0.300402 4.51307e-06 -45.738 
-60.268 75.172 -0.1808 -81.5193 88.8612 -60.8032 0 -0 0 6.46965 -9.03712 19.0084 27.1499 -13.1329 -2.39465e-05 53.666 -13.4421 0.21586 -0 73.5154 -0 -12.6515 1.2802 -0.141906 -16.5678 17.5181 8.41412e-05 -46.0052 12.0142 -3.23427 180 -76.9963 180 -4.18142 0.834106 -0.0304002 4.67099 1.3577 -20.6016 9.67813 -11.2035 -57.6021 -0 -0 62.8973 -1.92492e-05 -9.96003 -12.195 2.12441 4.14993e-06 -17.2095 3.40607 7.77216 -17.097 -0 -0 67.6586 5.41096e-06 7.12054 -2.80047 -0.349703 5.26227e-06 -40.4323 
-59.313 75.206 -0.0665 -86.8891 88.8045 -65.9394 0 -0 0 6.84558 -8.68006 18.8625 27.3235 -12.8183 9.48266e-05 53.3558 -12.3315 0.0616345 -8.94867e-07 73.4286 -1.19991e-06 -12.8909 1.09639 -0.123898 -16.57 17.388 -2.62748e-05 -46.997 12.7254 -2.54314 -180 -78.1928 180 -4.21628 0.912203 -0.0336001 4.84188 1.0564 -20.6972 9.68815 -11.1178 -57.1652 -0 -0 63.125 7.08942e-06 -10.2175 -12.7599 2.27974 1.27121e-05 -17.7411 3.44089 7.21275 -18.1865 -0 -0 69.3 3.0426e-07 8.05554 -3.04671 -0.430995 3.42629e-06 -35.5489 
-58.39 75.261 0.036 -91.7088 88.807 -70.511 0 -0 0 7.1293 -8.30388 18.7342 27.4525 -12.505 5.93201e-05 53.123 -11.1794 -0.0780172 -1.19597e-06 73.3662 -8.90902e-07 -13.1164 0.933097 -0.107301 -16.5305 17.2513 9.34742e-05 -48.0143 13.3901 -1.836 -180 -79.5151 180 -4.19698 1.0055 -0.0367998 5.03791 0.737994 -20.7824 9.66602 -11.0629 -56.7386 -0 -0 63.3089 -3.3507e-05 -10.4376 -13.28 2.42312 -5.6991e-06 -17.9257 3.41533 6.73814 -19.4267 -0 -0 70.9339 7.16699e-06 9.02066 -3.41388 -0.541597 -4.02526e-06 -31.6084 
-57.499 75.337 0.1324 -97.1107 88.7549 -75.6308 0 -0 0 7.36752 -7.91418 18.6032 27.5178 -12.1923 5.69163e-05 52.9726 -10.0072 -0.203177 -8.8898e-07 73.3338 -1.19406e-06 -13.3189 0.804007 -0.093898 -16.4733 17.1084 -6.57717e-05 -49.0267 14.0106 -1.11221 -180 -80.9412 180 -4.12523 1.1279 -0.0406004 5.23888 0.395895 -20.8545 9.64477 -11.0333 -56.3362 -0 -0 63.4416 -2.17969e-05 -10.6398 -13.7492 2.55663 2.14598e-05 -17.9146 3.36609 6.34803 -20.8308 -0 -0 72.5513 9.10715e-06 9.96533 -3.92691 -0.689404 3.79619e-06 -28.1125 
